<svg t="1739106592547" class="icon" viewBox="0 0 1024 1024" version="1.1" xmlns="http://www.w3.org/2000/svg" p-id="38666" width="200" height="200"><path d="M938.666667 256h-170.666667V85.333333c0-25.6-17.066667-42.666667-42.666667-42.666666H85.333333c-21.333333 0-42.666667 21.333333-42.666666 42.666666v640c0 25.6 17.066667 42.666667 42.666666 42.666667h170.666667v170.666667c0 25.6 17.066667 42.666667 42.666667 42.666666h640c25.6 0 42.666667-17.066667 42.666666-42.666666V298.666667c0-21.333333-17.066667-42.666667-42.666666-42.666667zM128 682.666667V128h554.666667v128H298.666667c-21.333333 0-42.666667 21.333333-42.666667 42.666667v384H128z m768 213.333333H341.333333V341.333333h554.666667v554.666667z" fill="#707070" p-id="38667"></path></svg>