<svg t="1739105738078" class="icon" viewBox="0 0 1024 1024" version="1.1" xmlns="http://www.w3.org/2000/svg" p-id="21478" width="200" height="200"><path d="M953.173333 259.413333l-187.733333-187.733333c-38.826667-38.826667-101.973333-38.826667-140.8 0L115.2 581.546667c-18.773333 18.773333-29.013333 43.946667-29.013333 70.4 0 26.453333 10.24 51.626667 29.013333 70.4l187.733333 187.733333c18.773333 18.773333 43.946667 29.013333 70.4 29.013333 26.453333 0 51.626667-10.24 70.4-29.013333L953.173333 400.213333a99.84 99.84 0 0 0 0-140.8zM383.573333 849.493333c-7.253333 7.253333-12.8 7.253333-20.053333 0l-187.733333-187.733333a14.805333 14.805333 0 0 1-4.266667-10.24c0-2.133333 0.426667-6.4 4.266667-10.24l180.906666-180.906667c2.56 4.266667 4.266667 8.533333 8.106667 11.946667l187.733333 187.733333c3.413333 3.413333 8.106667 5.546667 11.946667 8.106667l-180.906667 181.333333z" p-id="21479" fill="#707070"></path></svg>