<svg t="1739106292821" class="icon" viewBox="0 0 1024 1024" version="1.1" xmlns="http://www.w3.org/2000/svg" p-id="33554" width="200" height="200"><path d="M17.067 1024c-3.414 0-10.24 0-10.24-3.413C0 1013.76 0 1006.933 0 1000.107l68.267-204.8c0-3.414 3.413-3.414 3.413-6.827L832.853 30.72c40.96-40.96 105.814-40.96 153.6 6.827C1003.52 58.027 1024 92.16 1024 126.293c0 20.48-6.827 40.96-20.48 54.614-590.507 583.68-733.867 730.453-750.933 747.52-3.414 3.413-3.414 6.826-10.24 6.826L20.48 1020.587c0 3.413 0 3.413-3.413 3.413z m81.92-215.04L44.373 976.213l184.32-71.68c30.72-34.133 160.427-170.666 747.52-747.52 10.24-6.826 13.654-17.066 13.654-30.72 0-23.893-13.654-51.2-27.307-64.853-17.067-17.067-37.547-27.307-54.613-27.307s-34.134 6.827-47.787 20.48L98.987 808.96z" fill="#707070" p-id="33555"></path><path d="M238.933 938.667c-3.413 0-10.24 0-13.653-3.414L88.747 798.72c-6.827-6.827-6.827-17.067 0-23.893s17.066-6.827 23.893 0L249.173 911.36c6.827 6.827 6.827 17.067 0 23.893 0 0-6.826 3.414-10.24 3.414zM870.4 307.2c-3.413 0-10.24 0-13.653-3.413L720.213 167.253c-6.826-6.826-6.826-17.066 0-23.893s17.067-6.827 23.894 0L880.64 279.893c6.827 6.827 6.827 17.067 0 23.894 0 0-6.827 3.413-10.24 3.413z" fill="#707070" p-id="33556"></path></svg>